<?xml version="1.0" encoding="UTF-8" standalone="no"?>
<!DOCTYPE svg PUBLIC "-//W3C//DTD SVG 1.1//EN" "http://www.w3.org/Graphics/SVG/1.1/DTD/svg11.dtd">
<svg width="100%" height="100%" viewBox="0 0 1200 1200" version="1.1" xmlns="http://www.w3.org/2000/svg" xmlns:xlink="http://www.w3.org/1999/xlink" xml:space="preserve" xmlns:serif="http://www.serif.com/" style="fill-rule:evenodd;clip-rule:evenodd;stroke-linejoin:round;stroke-miterlimit:2;">
    <path d="M600,90C464.74,90 335.02,143.73 239.38,239.38C143.74,335.03 90,464.74 90,600C90,735.26 143.73,864.98 239.38,960.62C335.03,1056.26 464.74,1110 600,1110C735.26,1110 864.98,1056.27 960.62,960.62C1056.26,864.97 1110,735.26 1110,600C1110,510.477 1086.43,422.53 1041.67,345C996.91,267.47 932.532,203.09 855.002,158.33C777.472,113.57 689.522,90.002 600.002,90.002L600,90ZM881.16,652.56C881.129,695.876 863.914,737.412 833.297,768.05C802.68,798.688 761.156,815.937 717.837,815.999L580.077,815.999L580.077,713.159L717.837,713.159C733.942,713.159 749.384,706.761 760.775,695.374C772.162,683.987 778.556,668.542 778.556,652.44L778.556,610.44C778.556,594.335 772.161,578.889 760.775,567.502C749.384,556.115 733.943,549.717 717.837,549.717L492.957,549.717L492.957,612.717L294.837,498.477L492.957,383.997L492.957,446.997L717.837,446.997C761.173,447.059 802.716,464.321 833.337,494.989C863.958,525.653 881.157,567.219 881.157,610.559L881.16,652.56Z" style="fill:rgb(0,160,224);fill-rule:nonzero;stroke:rgb(0,58,93);stroke-width:25px;"/>
</svg>
